<svg xmlns="http://www.w3.org/2000/svg" width="720" height="440" viewBox="0 0 720 440">
<rect width="100%" height="100%" fill="white"/>
<text x="360.0" y="28" text-anchor="middle" font-family="sans-serif" font-size="18">Use-dependent retention and baselines</text>
<line x1="78" y1="374" x2="692" y2="374" stroke="#333"/>
<line x1="78" y1="54" x2="78" y2="374" stroke="#333"/>
<line x1="78" y1="374.0" x2="692" y2="374.0" stroke="#ddd"/>
<text x="70" y="378.0" text-anchor="end" font-family="sans-serif" font-size="11">-0.026</text>
<line x1="78" y1="310.0" x2="692" y2="310.0" stroke="#ddd"/>
<text x="70" y="314.0" text-anchor="end" font-family="sans-serif" font-size="11">0.049</text>
<line x1="78" y1="246.0" x2="692" y2="246.0" stroke="#ddd"/>
<text x="70" y="250.0" text-anchor="end" font-family="sans-serif" font-size="11">0.123</text>
<line x1="78" y1="182.0" x2="692" y2="182.0" stroke="#ddd"/>
<text x="70" y="186.0" text-anchor="end" font-family="sans-serif" font-size="11">0.197</text>
<line x1="78" y1="118.0" x2="692" y2="118.0" stroke="#ddd"/>
<text x="70" y="122.0" text-anchor="end" font-family="sans-serif" font-size="11">0.271</text>
<line x1="78" y1="54.0" x2="692" y2="54.0" stroke="#ddd"/>
<text x="70" y="58.0" text-anchor="end" font-family="sans-serif" font-size="11">0.346</text>
<polyline points="78.0,342.4 154.8,303.6 231.5,270.5 385.0,217.9 692.0,151.7" fill="none" stroke="#1769aa" stroke-width="2.5"/>
<circle cx="78.0" cy="342.4" r="3.5" fill="#1769aa"/>
<text x="78.0" y="392" text-anchor="middle" font-family="sans-serif" font-size="10">0</text>
<circle cx="154.8" cy="303.6" r="3.5" fill="#1769aa"/>
<text x="154.8" y="392" text-anchor="middle" font-family="sans-serif" font-size="10">1</text>
<circle cx="231.5" cy="270.5" r="3.5" fill="#1769aa"/>
<text x="231.5" y="392" text-anchor="middle" font-family="sans-serif" font-size="10">2</text>
<circle cx="385.0" cy="217.9" r="3.5" fill="#1769aa"/>
<text x="385.0" y="392" text-anchor="middle" font-family="sans-serif" font-size="10">4</text>
<circle cx="692.0" cy="151.7" r="3.5" fill="#1769aa"/>
<text x="692.0" y="392" text-anchor="middle" font-family="sans-serif" font-size="10">8</text>
<line x1="510" y1="54" x2="530" y2="54" stroke="#1769aa" stroke-width="3"/>
<text x="536" y="58" font-family="sans-serif" font-size="11">ET-RCM</text>
<polyline points="78.0,334.8 154.8,334.4 231.5,334.0 385.0,333.3 692.0,332.1" fill="none" stroke="#c0392b" stroke-width="2.5"/>
<circle cx="78.0" cy="334.8" r="3.5" fill="#c0392b"/>
<text x="78.0" y="392" text-anchor="middle" font-family="sans-serif" font-size="10">0</text>
<circle cx="154.8" cy="334.4" r="3.5" fill="#c0392b"/>
<text x="154.8" y="392" text-anchor="middle" font-family="sans-serif" font-size="10">1</text>
<circle cx="231.5" cy="334.0" r="3.5" fill="#c0392b"/>
<text x="231.5" y="392" text-anchor="middle" font-family="sans-serif" font-size="10">2</text>
<circle cx="385.0" cy="333.3" r="3.5" fill="#c0392b"/>
<text x="385.0" y="392" text-anchor="middle" font-family="sans-serif" font-size="10">4</text>
<circle cx="692.0" cy="332.1" r="3.5" fill="#c0392b"/>
<text x="692.0" y="392" text-anchor="middle" font-family="sans-serif" font-size="10">8</text>
<line x1="510" y1="71" x2="530" y2="71" stroke="#c0392b" stroke-width="3"/>
<text x="536" y="75" font-family="sans-serif" font-size="11">uniform</text>
<polyline points="78.0,79.6 154.8,79.7 231.5,79.9 385.0,80.1 692.0,80.7" fill="none" stroke="#2e7d32" stroke-width="2.5"/>
<circle cx="78.0" cy="79.6" r="3.5" fill="#2e7d32"/>
<text x="78.0" y="392" text-anchor="middle" font-family="sans-serif" font-size="10">0</text>
<circle cx="154.8" cy="79.7" r="3.5" fill="#2e7d32"/>
<text x="154.8" y="392" text-anchor="middle" font-family="sans-serif" font-size="10">1</text>
<circle cx="231.5" cy="79.9" r="3.5" fill="#2e7d32"/>
<text x="231.5" y="392" text-anchor="middle" font-family="sans-serif" font-size="10">2</text>
<circle cx="385.0" cy="80.1" r="3.5" fill="#2e7d32"/>
<text x="385.0" y="392" text-anchor="middle" font-family="sans-serif" font-size="10">4</text>
<circle cx="692.0" cy="80.7" r="3.5" fill="#2e7d32"/>
<text x="692.0" y="392" text-anchor="middle" font-family="sans-serif" font-size="10">8</text>
<line x1="510" y1="88" x2="530" y2="88" stroke="#2e7d32" stroke-width="3"/>
<text x="536" y="92" font-family="sans-serif" font-size="11">single</text>
<polyline points="78.0,342.4 154.8,302.8 231.5,265.1 385.0,195.5 692.0,76.1" fill="none" stroke="#7b1fa2" stroke-width="2.5"/>
<circle cx="78.0" cy="342.4" r="3.5" fill="#7b1fa2"/>
<text x="78.0" y="392" text-anchor="middle" font-family="sans-serif" font-size="10">0</text>
<circle cx="154.8" cy="302.8" r="3.5" fill="#7b1fa2"/>
<text x="154.8" y="392" text-anchor="middle" font-family="sans-serif" font-size="10">1</text>
<circle cx="231.5" cy="265.1" r="3.5" fill="#7b1fa2"/>
<text x="231.5" y="392" text-anchor="middle" font-family="sans-serif" font-size="10">2</text>
<circle cx="385.0" cy="195.5" r="3.5" fill="#7b1fa2"/>
<text x="385.0" y="392" text-anchor="middle" font-family="sans-serif" font-size="10">4</text>
<circle cx="692.0" cy="76.1" r="3.5" fill="#7b1fa2"/>
<text x="692.0" y="392" text-anchor="middle" font-family="sans-serif" font-size="10">8</text>
<line x1="510" y1="105" x2="530" y2="105" stroke="#7b1fa2" stroke-width="3"/>
<text x="536" y="109" font-family="sans-serif" font-size="11">non-conserving</text>
<text x="360.0" y="424" text-anchor="middle" font-family="sans-serif" font-size="13">internal reuse</text>
<text transform="translate(18 220.0) rotate(-90)" text-anchor="middle" font-family="sans-serif" font-size="13">slow retention</text>
</svg>