<svg xmlns="http://www.w3.org/2000/svg" width="900" height="520" viewBox="0 0 900 520">
<rect width="100%" height="100%" fill="white"/>
<text x="80" y="28" font-family="sans-serif" font-size="20" font-weight="bold">B_selective_persistence</text>
<line x1="80" y1="445" x2="670" y2="445" stroke="#111"/>
<line x1="80" y1="55" x2="80" y2="445" stroke="#111"/>
<text x="375.0" y="505" text-anchor="middle" font-family="sans-serif" font-size="14">distractor count</text>
<text x="18" y="250.0" transform="rotate(-90 18 250.0)" text-anchor="middle" font-family="sans-serif" font-size="14">accuracy</text>
<line x1="80" y1="445.0" x2="670" y2="445.0" stroke="#e5e7eb"/>
<text x="72" y="449.0" text-anchor="end" font-family="sans-serif" font-size="11">-0.004</text>
<line x1="80" y1="367.0" x2="670" y2="367.0" stroke="#e5e7eb"/>
<text x="72" y="371.0" text-anchor="end" font-family="sans-serif" font-size="11">0.059</text>
<line x1="80" y1="289.0" x2="670" y2="289.0" stroke="#e5e7eb"/>
<text x="72" y="293.0" text-anchor="end" font-family="sans-serif" font-size="11">0.121</text>
<line x1="80" y1="211.0" x2="670" y2="211.0" stroke="#e5e7eb"/>
<text x="72" y="215.0" text-anchor="end" font-family="sans-serif" font-size="11">0.184</text>
<line x1="80" y1="133.0" x2="670" y2="133.0" stroke="#e5e7eb"/>
<text x="72" y="137.0" text-anchor="end" font-family="sans-serif" font-size="11">0.247</text>
<line x1="80" y1="55.0" x2="670" y2="55.0" stroke="#e5e7eb"/>
<text x="72" y="59.0" text-anchor="end" font-family="sans-serif" font-size="11">0.309</text>
<polyline points="80.0,427.3 198.0,427.3 670.0,427.3" fill="none" stroke="#2563eb" stroke-width="2"/>
<circle cx="80.0" cy="427.3" r="3" fill="#2563eb"/>
<circle cx="198.0" cy="427.3" r="3" fill="#2563eb"/>
<circle cx="670.0" cy="427.3" r="3" fill="#2563eb"/>
<line x1="700" y1="55" x2="720" y2="55" stroke="#2563eb" stroke-width="3"/>
<text x="728" y="59" font-family="sans-serif" font-size="11">B0_no_memory_mlp</text>
<polyline points="80.0,427.3 198.0,427.3 670.0,427.3" fill="none" stroke="#dc2626" stroke-width="2"/>
<circle cx="80.0" cy="427.3" r="3" fill="#dc2626"/>
<circle cx="198.0" cy="427.3" r="3" fill="#dc2626"/>
<circle cx="670.0" cy="427.3" r="3" fill="#dc2626"/>
<line x1="700" y1="73" x2="720" y2="73" stroke="#dc2626" stroke-width="3"/>
<text x="728" y="77" font-family="sans-serif" font-size="11">B1_gru</text>
<polyline points="80.0,72.7 198.0,418.6 670.0,418.6" fill="none" stroke="#16a34a" stroke-width="2"/>
<circle cx="80.0" cy="72.7" r="3" fill="#16a34a"/>
<circle cx="198.0" cy="418.6" r="3" fill="#16a34a"/>
<circle cx="670.0" cy="418.6" r="3" fill="#16a34a"/>
<line x1="700" y1="91" x2="720" y2="91" stroke="#16a34a" stroke-width="3"/>
<text x="728" y="95" font-family="sans-serif" font-size="11">B2_single_persistent</text>
<polyline points="80.0,349.4 198.0,414.3 670.0,410.0" fill="none" stroke="#9333ea" stroke-width="2"/>
<circle cx="80.0" cy="349.4" r="3" fill="#9333ea"/>
<circle cx="198.0" cy="414.3" r="3" fill="#9333ea"/>
<circle cx="670.0" cy="410.0" r="3" fill="#9333ea"/>
<line x1="700" y1="109" x2="720" y2="109" stroke="#9333ea" stroke-width="3"/>
<text x="728" y="113" font-family="sans-serif" font-size="11">B3_uniform</text>
<polyline points="80.0,211.1 198.0,362.4 670.0,366.7" fill="none" stroke="#ea580c" stroke-width="2"/>
<circle cx="80.0" cy="211.1" r="3" fill="#ea580c"/>
<circle cx="198.0" cy="362.4" r="3" fill="#ea580c"/>
<circle cx="670.0" cy="366.7" r="3" fill="#ea580c"/>
<line x1="700" y1="127" x2="720" y2="127" stroke="#ea580c" stroke-width="3"/>
<text x="728" y="131" font-family="sans-serif" font-size="11">B5_no_idle</text>
<polyline points="80.0,154.9 198.0,323.5 670.0,345.1" fill="none" stroke="#0891b2" stroke-width="2"/>
<circle cx="80.0" cy="154.9" r="3" fill="#0891b2"/>
<circle cx="198.0" cy="323.5" r="3" fill="#0891b2"/>
<circle cx="670.0" cy="345.1" r="3" fill="#0891b2"/>
<line x1="700" y1="145" x2="720" y2="145" stroke="#0891b2" stroke-width="3"/>
<text x="728" y="149" font-family="sans-serif" font-size="11">B6_full</text>
<polyline points="80.0,427.3 198.0,427.3 670.0,427.3" fill="none" stroke="#4b5563" stroke-width="2"/>
<circle cx="80.0" cy="427.3" r="3" fill="#4b5563"/>
<circle cx="198.0" cy="427.3" r="3" fill="#4b5563"/>
<circle cx="670.0" cy="427.3" r="3" fill="#4b5563"/>
<line x1="700" y1="163" x2="720" y2="163" stroke="#4b5563" stroke-width="3"/>
<text x="728" y="167" font-family="sans-serif" font-size="11">B6_full_memory_lesion</text>
</svg>